<?xml version="1.0" encoding="UTF-8" standalone="no"?>
<svg
   xmlns:dc="http://purl.org/dc/elements/1.1/"
   xmlns:cc="http://creativecommons.org/ns#"
   xmlns:rdf="http://www.w3.org/1999/02/22-rdf-syntax-ns#"
   xmlns:svg="http://www.w3.org/2000/svg"
   xmlns="http://www.w3.org/2000/svg"
   xmlns:sodipodi="http://sodipodi.sourceforge.net/DTD/sodipodi-0.dtd"
   xmlns:inkscape="http://www.inkscape.org/namespaces/inkscape"
   inkscape:export-ydpi="96"
   inkscape:export-xdpi="96"
   inkscape:export-filename="C:\Users\Andrew\OneDrive\Documents\Pictures\Icons\ndcell_logo_2020-07-22.png"
   sodipodi:docname="ndcell_logo_web_2020-07-22.svg"
   inkscape:version="1.0 (4035a4fb49, 2020-05-01)"
   id="svg8"
   version="1.1"
   viewBox="0 0 2560 512"
   height="512"
   width="2560">
  <defs
     id="defs2">
    <rect
       id="rect864"
       height="225"
       width="77.942284"
       y="228.70831"
       x="567.76917" />
  </defs>
  <sodipodi:namedview
     inkscape:document-rotation="0"
     inkscape:window-maximized="1"
     inkscape:window-y="337"
     inkscape:window-x="2552"
     inkscape:window-height="1017"
     inkscape:window-width="1920"
     inkscape:pagecheckerboard="false"
     units="px"
     showgrid="true"
     inkscape:current-layer="text860"
     inkscape:document-units="px"
     inkscape:cy="222.14368"
     inkscape:cx="1228.5269"
     inkscape:zoom="0.42400001"
     inkscape:pageshadow="2"
     inkscape:pageopacity="0"
     borderopacity="1.0"
     bordercolor="#666666"
     pagecolor="#303030"
     id="base">
    <inkscape:grid
       originy="256"
       originx="256"
       visible="true"
       spacingy="15"
       empspacing="6"
       units="px"
       id="grid51"
       type="axonomgrid" />
  </sodipodi:namedview>
  <metadata
     id="metadata5">
    <rdf:RDF>
      <cc:Work
         rdf:about="">
        <dc:format>image/svg+xml</dc:format>
        <dc:type
           rdf:resource="http://purl.org/dc/dcmitype/StillImage" />
        <dc:title></dc:title>
      </cc:Work>
    </rdf:RDF>
  </metadata>
  <g
     transform="translate(0,-152.70832)"
     id="layer1"
     inkscape:groupmode="layer"
     inkscape:label="Layer 1">
    <path
       sodipodi:nodetypes="ccccc"
       inkscape:connector-curvature="0"
       id="path28-3-9"
       d="m 853.55755,468.70832 v 90 l 77.94228,-45 v -90 z"
       style="fill:#7f3f00;fill-opacity:1;stroke:#000000;stroke-width:10;stroke-linecap:round;stroke-linejoin:round;stroke-miterlimit:4;stroke-dasharray:none;stroke-opacity:1;paint-order:normal" />
    <path
       sodipodi:nodetypes="ccccc"
       inkscape:connector-curvature="0"
       id="path28-2-0"
       d="m 775.61525,243.70832 -77.94229,45 77.94229,45 77.94229,-45 z"
       style="fill:#bf5f00;fill-opacity:1;stroke:#000000;stroke-width:10;stroke-linecap:round;stroke-linejoin:round;stroke-miterlimit:4;stroke-dasharray:none;stroke-opacity:1;paint-order:normal" />
    <path
       sodipodi:nodetypes="ccccc"
       inkscape:connector-curvature="0"
       id="path28-2-0-8-4-3"
       d="m 697.67297,198.70832 -77.9423,45 77.9423,45 77.94229,-45 z"
       style="fill:#2f7700;fill-opacity:1;stroke:#000000;stroke-width:10;stroke-linecap:round;stroke-linejoin:round;stroke-miterlimit:4;stroke-dasharray:none;stroke-opacity:1;paint-order:normal" />
    <path
       sodipodi:nodetypes="ccccc"
       inkscape:connector-curvature="0"
       id="path28-2-0-8-4-7"
       d="m 853.55754,198.70832 -77.94229,45 77.94229,45 77.94229,-45 z"
       style="fill:#2f7700;fill-opacity:1;stroke:#000000;stroke-width:10;stroke-linecap:round;stroke-linejoin:round;stroke-miterlimit:4;stroke-dasharray:none;stroke-opacity:1;paint-order:normal" />
    <path
       sodipodi:nodetypes="ccccc"
       inkscape:connector-curvature="0"
       id="path28-3-1-2-1-9"
       d="m 931.49983,423.70832 v 90 l 77.94227,-45 v -90 z"
       style="fill:#1f4f00;fill-opacity:1;stroke:#000000;stroke-width:10.0006;stroke-linecap:round;stroke-linejoin:round;stroke-miterlimit:4;stroke-dasharray:none;stroke-opacity:1;paint-order:normal" />
    <path
       sodipodi:nodetypes="ccccc"
       inkscape:connector-curvature="0"
       id="path28-08-8-8-8"
       d="m 775.61525,603.70832 77.94229,45 v -90 l -77.94228,-45 z"
       style="fill:#3f9f00;fill-opacity:1;stroke:#000000;stroke-width:10;stroke-linecap:round;stroke-linejoin:round;stroke-miterlimit:4;stroke-dasharray:none;stroke-opacity:1;paint-order:normal" />
    <path
       sodipodi:nodetypes="ccccc"
       inkscape:connector-curvature="0"
       id="path28-3-1-2-0-0"
       d="m 853.55754,558.70832 v 90 l 77.94229,-45 v -90 z"
       style="fill:#1f4f00;fill-opacity:1;stroke:#000000;stroke-width:10;stroke-linecap:round;stroke-linejoin:round;stroke-miterlimit:4;stroke-dasharray:none;stroke-opacity:1;paint-order:normal" />
    <path
       sodipodi:nodetypes="ccccc"
       inkscape:connector-curvature="0"
       id="path28-08-8-5"
       d="m 697.67297,288.70832 v 90 l 77.94229,45 v -90 z"
       style="fill:#ff7f00;fill-opacity:1;stroke:#000000;stroke-width:10;stroke-linecap:round;stroke-linejoin:round;stroke-miterlimit:4;stroke-dasharray:none;stroke-opacity:1;paint-order:normal" />
    <path
       sodipodi:nodetypes="ccccc"
       inkscape:connector-curvature="0"
       id="path28-08-8-4"
       d="m 775.61526,423.70832 v 90 l 77.94229,45 v -90 z"
       style="fill:#ff7f00;fill-opacity:1;stroke:#000000;stroke-width:10;stroke-linecap:round;stroke-linejoin:round;stroke-miterlimit:4;stroke-dasharray:none;stroke-opacity:1;paint-order:normal" />
    <path
       sodipodi:nodetypes="ccccc"
       inkscape:connector-curvature="0"
       id="path28-08-8-8-5-9"
       d="m 619.73067,243.70832 v 90 l 77.94231,45 v -90 z"
       style="fill:#3f9f00;fill-opacity:1;stroke:#000000;stroke-width:10;stroke-linecap:round;stroke-linejoin:round;stroke-miterlimit:4;stroke-dasharray:none;stroke-opacity:1;paint-order:normal" />
    <path
       sodipodi:nodetypes="cccc"
       inkscape:connector-curvature="0"
       id="path28-3-1-2-0-1-6"
       d="m 853.55754,288.70832 77.94229,45 v -90 z"
       style="fill:#1f4f00;fill-opacity:1;stroke:#000000;stroke-width:10;stroke-linecap:round;stroke-linejoin:round;stroke-miterlimit:4;stroke-dasharray:none;stroke-opacity:1;paint-order:normal" />
    <path
       sodipodi:nodetypes="cccc"
       inkscape:connector-curvature="0"
       id="path28-2-0-8-4-8-6"
       d="m 931.49983,333.70832 v 90 l 77.94227,-45 z"
       style="fill:#2f7700;fill-opacity:1;stroke:#000000;stroke-width:10;stroke-linecap:round;stroke-linejoin:round;stroke-miterlimit:4;stroke-dasharray:none;stroke-opacity:1;paint-order:normal" />
    <path
       sodipodi:nodetypes="ccccc"
       inkscape:connector-curvature="0"
       id="path28-08-8-5-8"
       d="m 697.67297,378.70832 v 90 l 77.94229,45 v -90 z"
       style="fill:#5fbfff;fill-opacity:1;stroke:#000000;stroke-width:10;stroke-linecap:round;stroke-linejoin:round;stroke-miterlimit:4;stroke-dasharray:none;stroke-opacity:1;paint-order:normal" />
    <path
       sodipodi:nodetypes="ccccc"
       inkscape:connector-curvature="0"
       id="path28-08-8-5-2"
       d="m 619.73067,333.70832 v 90 l 77.94231,45 v -90 z"
       style="fill:#ff7f00;fill-opacity:1;stroke:#000000;stroke-width:10;stroke-linecap:round;stroke-linejoin:round;stroke-miterlimit:4;stroke-dasharray:none;stroke-opacity:1;paint-order:normal" />
    <path
       sodipodi:nodetypes="ccccc"
       inkscape:connector-curvature="0"
       id="path28-08-8-5-6"
       d="m 697.67297,468.70832 v 90 l 77.94229,45 v -90 z"
       style="fill:#ff7f00;fill-opacity:1;stroke:#000000;stroke-width:10;stroke-linecap:round;stroke-linejoin:round;stroke-miterlimit:4;stroke-dasharray:none;stroke-opacity:1;paint-order:normal" />
    <path
       sodipodi:nodetypes="ccccc"
       inkscape:connector-curvature="0"
       id="path28-08-8-8-8-6"
       d="m 619.73067,513.70832 77.94231,45 v -90 l -77.9423,-45 z"
       style="fill:#3f9f00;fill-opacity:1;stroke:#000000;stroke-width:10;stroke-linecap:round;stroke-linejoin:round;stroke-miterlimit:4;stroke-dasharray:none;stroke-opacity:1;paint-order:normal" />
    <path
       sodipodi:nodetypes="ccccc"
       inkscape:connector-curvature="0"
       id="path28-08-8-8-8-3"
       d="m 775.61525,423.70832 77.94229,45 v -90 l -77.94228,-45 z"
       style="fill:#3f9f00;fill-opacity:1;stroke:#000000;stroke-width:10;stroke-linecap:round;stroke-linejoin:round;stroke-miterlimit:4;stroke-dasharray:none;stroke-opacity:1;paint-order:normal" />
    <path
       sodipodi:nodetypes="ccccc"
       inkscape:connector-curvature="0"
       id="path28-3-1-2-1-9-8"
       d="m 853.55754,378.70832 v 90 l 77.94229,-45 v -90 z"
       style="fill:#1f4f00;fill-opacity:1;stroke:#000000;stroke-width:10;stroke-linecap:round;stroke-linejoin:round;stroke-miterlimit:4;stroke-dasharray:none;stroke-opacity:1;paint-order:normal" />
    <path
       sodipodi:nodetypes="ccccc"
       inkscape:connector-curvature="0"
       id="path28-2-0-8-4-8-6-8"
       d="m 853.55754,288.70832 -77.94229,45 77.94229,45 77.94229,-45 z"
       style="fill:#2f7700;fill-opacity:1;stroke:#000000;stroke-width:10;stroke-linecap:round;stroke-linejoin:round;stroke-miterlimit:4;stroke-dasharray:none;stroke-opacity:1;paint-order:normal" />
    <g
       style="font-style:normal;font-variant:normal;font-weight:normal;font-stretch:normal;font-size:256px;line-height:1.25;font-family:'Roboto Slab';-inkscape-font-specification:'Roboto Slab, @wght=400';font-variant-ligatures:normal;font-variant-caps:normal;font-variant-numeric:normal;font-variant-east-asian:normal;font-variation-settings:'wght' 400;letter-spacing:0px;word-spacing:0px;fill:#ffffff;fill-opacity:1;stroke:none"
       id="text860"
       aria-label="NDCell">
      <path
         id="path862"
         d="m 1126.0193,507.70831 v -15.75 l 20.375,-3.5 v -143.375 l -20.375,-3.5 v -15.875 h 20.375 24.875 l 89.25,141.875 0.75,-0.25 v -122.25 l -22.375,-3.5 v -15.875 h 45 20.375 v 15.875 l -20.375,3.5 v 162.625 h -22.5 l -91.625,-142.625 -0.75,0.25 v 123.125 l 22.375,3.5 v 15.75 z" />
      <path
         id="path864"
         d="m 1324.7693,507.70831 v -15.75 l 20.375,-3.5 v -143.375 l -20.375,-3.5 v -15.875 h 20.375 50.875 q 24.125,0 42,11.5 18,11.5 28,31.625 10,20.125 10,46 v 3.875 q 0,25.25 -9.625,45.5 -9.625,20.125 -27.375,31.875 -17.625,11.625 -41.75,11.625 z m 45,-19.25 h 26.25 q 17.25,0 29.625,-9.375 12.375,-9.5 19,-25.25 6.75,-15.875 6.75,-35.125 v -4.125 q 0,-19.875 -6.75,-35.5 -6.625,-15.75 -19,-24.875 -12.375,-9.125 -29.625,-9.125 h -26.25 z" />
      <path
         id="path866"
         d="m 1583.5193,510.33331 q -27.375,0 -45.75,-12 -18.25,-12 -27.5,-32.875 -9.125,-20.875 -9.125,-47.375 v -2.625 q 0,-26.75 9.625,-47.5 9.625,-20.875 27.625,-32.875 18,-12 43,-12 17.625,0 32.25,5.5 14.625,5.5 24.25,14 v 39.25 h -19.625 l -2.625,-28.75 q -4,-3.125 -9.25,-5.25 -5.125,-2.125 -11.5,-3.25 -6.25,-1.125 -13.625,-1.125 -17.875,0 -30.25,9.25 -12.375,9.125 -18.75,25.25 -6.375,16.125 -6.375,37.25 v 2.875 q 0,22.875 6.75,39.125 6.875,16.125 19.875,24.625 13.125,8.5 31.875,8.5 8.75,0 17.125,-2.125 8.375,-2.125 13.875,-5.5 l 2.75,-25.375 h 19.25 v 39.5 q -10.25,6.375 -24.5,10 -14.25,3.5 -29.375,3.5 z" />
      <path
         id="path868"
         d="m 1723.5193,510.33331 q -18.75,0 -32.625,-8.5 -13.875,-8.625 -21.5,-23.875 -7.5,-15.25 -7.5,-35.25 v -5.5 q 0,-19.25 7.875,-34.375 8,-15.25 21.125,-24 13.25,-8.875 28.875,-8.875 18.25,0 30.5,7.5 12.375,7.5 18.625,21.125 6.25,13.5 6.25,31.875 v 15.375 h -87.75 l -0.375,0.625 q 0.25,13 4.5,23.125 4.375,10 12.5,15.75 8.125,5.75 19.5,5.75 12.5,0 21.875,-3.5 9.5,-3.625 16.375,-9.875 l 9.625,16 q -7.25,7 -19.25,11.875 -11.875,4.75 -28.625,4.75 z m -35.375,-83.75 h 62.375 v -3.25 q 0,-9.75 -3.5,-17.375 -3.375,-7.75 -10.25,-12.125 -6.75,-4.5 -17,-4.5 -8.25,0 -15,4.875 -6.75,4.75 -11.125,13 -4.375,8.25 -5.75,18.75 z" />
      <path
         id="path870"
         d="m 1793.1443,507.70831 v -15.75 l 20.375,-3.5 v -156.375 l -20.375,-3.5 v -15.875 h 45 v 175.75 l 20.375,3.5 v 15.75 z" />
      <path
         id="path872"
         d="m 1874.6443,507.70831 v -15.75 l 20.375,-3.5 v -156.375 l -20.375,-3.5 v -15.875 h 45 v 175.75 l 20.375,3.5 v 15.75 z" />
    </g>
    <text
       style="font-style:normal;font-weight:normal;font-size:40px;line-height:1.25;font-family:sans-serif;letter-spacing:0px;word-spacing:0px;white-space:pre;shape-inside:url(#rect864);fill:#000000;fill-opacity:1;stroke:none;"
       id="text862"
       xml:space="preserve" />
  </g>
</svg>
